<svg width="190" height="24" viewBox="0 0 190 24" fill="currentColor" xmlns="http://www.w3.org/2000/svg">
    <path d="M7.77922 7.47458H4.22301V15.178C4.22301 15.8729 4.35472 16.3729 4.61814 16.678C4.88157 16.9661 5.2767 17.1186 5.80355 17.1356C6.3304 17.1356 6.98895 17.1186 7.77922 17.0847V18.5593C6.05051 18.8305 4.74985 18.7034 3.87726 18.178C3.02114 17.6525 2.59308 16.6525 2.59308 15.178V7.47458H0V5.84746H2.59308V2.79661L4.22301 2.28813V5.84746H7.77922V7.47458Z"></path>
    <path d="M16.2746 5.54237C17.7729 5.54237 18.95 6.01695 19.8062 6.9661C20.6787 7.8983 21.115 9.16102 21.115 10.7542V18.5593H19.4851V10.7542C19.4851 9.61864 19.1888 8.73729 18.5961 8.11017C18.0198 7.48305 17.1966 7.16949 16.1265 7.16949C14.9411 7.16949 13.9779 7.55932 13.237 8.33898C12.4962 9.1017 12.1257 10.2881 12.1257 11.8983V18.5593H10.4958V0.762711H12.1257V7.83051C13.0477 6.30508 14.4307 5.54237 16.2746 5.54237Z"></path>
    <path d="M25.9213 2.79661C25.6908 3.0339 25.4109 3.15254 25.0816 3.15254C24.7524 3.15254 24.4725 3.0339 24.242 2.79661C24.0115 2.55932 23.8962 2.27119 23.8962 1.9322C23.8962 1.59322 24.0115 1.30508 24.242 1.0678C24.4725 0.830508 24.7524 0.711864 25.0816 0.711864C25.4109 0.711864 25.6908 0.830508 25.9213 1.0678C26.1518 1.30508 26.267 1.59322 26.267 1.9322C26.267 2.27119 26.1518 2.55932 25.9213 2.79661ZM24.2667 18.5593V5.84746H25.8966V18.5593H24.2667Z"></path>
    <path d="M35.1342 5.54237C36.6325 5.54237 37.8096 6.01695 38.6658 6.9661C39.5383 7.8983 39.9746 9.16102 39.9746 10.7542V18.5593H38.3447V10.7542C38.3447 9.61864 38.0484 8.73729 37.4557 8.11017C36.8794 7.48305 36.0562 7.16949 34.9861 7.16949C33.8007 7.16949 32.8375 7.55932 32.0966 8.33898C31.3558 9.1017 30.9853 10.2881 30.9853 11.8983V18.5593H29.3554V5.84746H30.9853V7.83051C31.9073 6.30508 33.2903 5.54237 35.1342 5.54237Z"></path>
    <path d="M53.1034 18.5593H50.9302L44.7562 12.4322V18.5593H43.1263V0.762711H44.7562V11.4661L50.6338 5.84746H52.8565L46.4849 11.9492L53.1034 18.5593Z"></path>
    <path d="M64.5164 5.84746H67.6281V17.9492C67.6281 19.9153 66.9943 21.4153 65.7265 22.4492C64.4753 23.4831 62.9606 24 61.1825 24C59.8489 24 58.6717 23.7373 57.651 23.2119C56.6467 22.6864 55.8729 21.9153 55.3295 20.8983L58.0461 19.2966C58.6717 20.483 59.7501 21.0763 61.2813 21.0763C62.2856 21.0763 63.0758 20.8051 63.6521 20.2627C64.2283 19.7203 64.5164 18.9492 64.5164 17.9492V16.5763C63.578 17.8644 62.2609 18.5085 60.5651 18.5085C58.8199 18.5085 57.3546 17.8814 56.1692 16.6271C55.0003 15.3559 54.4158 13.8136 54.4158 12C54.4158 10.2034 55.0085 8.66949 56.1939 7.3983C57.3793 6.12712 58.8364 5.49153 60.5651 5.49153C62.2609 5.49153 63.578 6.13559 64.5164 7.42373V5.84746ZM58.5647 14.5169C59.2233 15.161 60.0547 15.4831 61.059 15.4831C62.0633 15.4831 62.8865 15.161 63.5286 14.5169C64.1872 13.8559 64.5164 13.0169 64.5164 12C64.5164 11 64.1872 10.178 63.5286 9.5339C62.8865 8.87288 62.0633 8.54237 61.059 8.54237C60.0547 8.54237 59.2233 8.87288 58.5647 9.5339C57.9226 10.178 57.6016 11 57.6016 12C57.6016 13.0169 57.9226 13.8559 58.5647 14.5169Z"></path>
    <path d="M73.2088 13.5508C73.6369 15.1441 74.7976 15.9407 76.691 15.9407C77.9093 15.9407 78.8313 15.5169 79.4569 14.6695L82.0253 16.1949C80.807 18.0085 79.0124 18.9153 76.6416 18.9153C74.6 18.9153 72.9619 18.2797 71.7271 17.0085C70.4923 15.7373 69.8749 14.1356 69.8749 12.2034C69.8749 10.2881 70.484 8.69491 71.7024 7.42373C72.9207 6.13559 74.4848 5.49153 76.3946 5.49153C78.2057 5.49153 79.6956 6.13559 80.8646 7.42373C82.05 8.71186 82.6427 10.3051 82.6427 12.2034C82.6427 12.6271 82.6015 13.0763 82.5192 13.5508H73.2088ZM73.1594 11.0085H79.4569C79.2758 10.1441 78.8971 9.5 78.3209 9.07627C77.7611 8.65254 77.119 8.44068 76.3946 8.44068C75.5385 8.44068 74.8305 8.66949 74.2708 9.12712C73.711 9.5678 73.3405 10.1949 73.1594 11.0085Z"></path>
    <path d="M87.3232 9.45763C87.3232 9.79661 87.5372 10.0763 87.9652 10.2966C88.4098 10.5 88.9448 10.6864 89.5705 10.8559C90.1961 11.0085 90.8217 11.2119 91.4474 11.4661C92.073 11.7034 92.5999 12.1102 93.0279 12.6864C93.4724 13.2627 93.6947 13.9831 93.6947 14.8475C93.6947 16.1525 93.2173 17.161 92.2623 17.8729C91.3239 18.5678 90.1467 18.9153 88.7308 18.9153C86.1954 18.9153 84.4667 17.9068 83.5447 15.8898L86.3106 14.2881C86.6728 15.3898 87.4796 15.9407 88.7308 15.9407C89.8668 15.9407 90.4348 15.5763 90.4348 14.8475C90.4348 14.5085 90.2126 14.2373 89.7681 14.0339C89.34 13.8136 88.8131 13.6186 88.1875 13.4492C87.5619 13.2797 86.9362 13.0678 86.3106 12.8136C85.685 12.5593 85.1499 12.161 84.7054 11.6186C84.2773 11.0593 84.0633 10.3644 84.0633 9.5339C84.0633 8.27966 84.5078 7.29661 85.3969 6.58475C86.3024 5.85593 87.4219 5.49153 88.7555 5.49153C89.7598 5.49153 90.6736 5.72881 91.4968 6.20339C92.32 6.66102 92.9703 7.32203 93.4478 8.18644L90.7312 9.71186C90.3361 8.84746 89.6775 8.41525 88.7555 8.41525C88.3439 8.41525 87.9982 8.50847 87.7183 8.69491C87.4549 8.88136 87.3232 9.13559 87.3232 9.45763Z"></path>
    <path d="M102.445 9H99.6541V14.2881C99.6541 14.7288 99.7612 15.0508 99.9752 15.2542C100.189 15.4576 100.502 15.5763 100.914 15.6102C101.325 15.6271 101.836 15.6186 102.445 15.5847V18.5593C100.255 18.8136 98.7075 18.6017 97.802 17.9237C96.9129 17.2458 96.4684 16.0339 96.4684 14.2881V9H94.3198V5.84746H96.4684V3.27966L99.6541 2.28813V5.84746H102.445V9Z"></path>
    <path d="M113.69 5.84746H116.875V18.5593H113.69V17.0593C112.735 18.2966 111.393 18.9153 109.664 18.9153C108.018 18.9153 106.602 18.2712 105.416 16.983C104.247 15.678 103.663 14.0847 103.663 12.2034C103.663 10.322 104.247 8.73729 105.416 7.44915C106.602 6.14407 108.018 5.49153 109.664 5.49153C111.393 5.49153 112.735 6.11017 113.69 7.34746V5.84746ZM107.812 14.7966C108.454 15.4576 109.269 15.7881 110.257 15.7881C111.245 15.7881 112.06 15.4576 112.702 14.7966C113.36 14.1186 113.69 13.2542 113.69 12.2034C113.69 11.1525 113.36 10.2966 112.702 9.63559C112.06 8.95763 111.245 8.61864 110.257 8.61864C109.269 8.61864 108.454 8.95763 107.812 9.63559C107.17 10.2966 106.849 11.1525 106.849 12.2034C106.849 13.2542 107.17 14.1186 107.812 14.7966Z"></path>
    <path d="M119.764 18.5593V0H122.95V18.5593H119.764Z"></path>
    <path d="M132.929 9H130.138V14.2881C130.138 14.7288 130.245 15.0508 130.459 15.2542C130.673 15.4576 130.986 15.5763 131.398 15.6102C131.809 15.6271 132.32 15.6186 132.929 15.5847V18.5593C130.739 18.8136 129.192 18.6017 128.286 17.9237C127.397 17.2458 126.952 16.0339 126.952 14.2881V9H124.804V5.84746H126.952V3.27966L130.138 2.28813V5.84746H132.929V9Z"></path>
    <path d="M138.702 18.2542C138.29 18.678 137.796 18.8898 137.22 18.8898C136.644 18.8898 136.15 18.678 135.738 18.2542C135.327 17.8305 135.121 17.322 135.121 16.7288C135.121 16.1356 135.327 15.6271 135.738 15.2034C136.15 14.7797 136.644 14.5678 137.22 14.5678C137.796 14.5678 138.29 14.7797 138.702 15.2034C139.114 15.6271 139.319 16.1356 139.319 16.7288C139.319 17.322 139.114 17.8305 138.702 18.2542Z"></path>
    <path d="M148.792 7.47458H145.236V15.178C145.236 15.8729 145.368 16.3729 145.631 16.678C145.895 16.9661 146.29 17.1186 146.816 17.1356C147.343 17.1356 148.002 17.1186 148.792 17.0847V18.5593C147.063 18.8305 145.763 18.7034 144.89 18.178C144.034 17.6525 143.606 16.6525 143.606 15.178V7.47458H141.013V5.84746H143.606V2.79661L145.236 2.28813V5.84746H148.792V7.47458Z"></path>
    <path d="M156.466 5.54237C158.293 5.54237 159.767 6.21186 160.886 7.55085C162.022 8.87288 162.59 10.4407 162.59 12.2542C162.59 12.4407 162.574 12.7034 162.541 13.0424H151.7C151.864 14.3305 152.391 15.3559 153.28 16.1186C154.186 16.8644 155.297 17.2373 156.614 17.2373C157.552 17.2373 158.359 17.0424 159.034 16.6525C159.726 16.2458 160.244 15.7203 160.59 15.0763L162.022 15.9407C161.479 16.839 160.738 17.5508 159.8 18.0763C158.861 18.6017 157.791 18.8644 156.589 18.8644C154.647 18.8644 153.066 18.2373 151.848 16.983C150.629 15.7288 150.02 14.1356 150.02 12.2034C150.02 10.3051 150.621 8.72034 151.823 7.44915C153.025 6.17797 154.572 5.54237 156.466 5.54237ZM156.466 7.16949C155.182 7.16949 154.103 7.5678 153.231 8.36441C152.375 9.14407 151.864 10.161 151.7 11.4153H160.911C160.746 10.0763 160.244 9.0339 159.405 8.28814C158.565 7.54237 157.585 7.16949 156.466 7.16949Z"></path>
    <path d="M170.937 18.8644C169.077 18.8644 167.529 18.2288 166.294 16.9576C165.06 15.6695 164.442 14.0847 164.442 12.2034C164.442 10.322 165.06 8.74576 166.294 7.47458C167.529 6.18644 169.077 5.54237 170.937 5.54237C172.156 5.54237 173.25 5.84746 174.222 6.45763C175.193 7.05085 175.901 7.85593 176.346 8.87288L175.012 9.66102C174.683 8.8983 174.148 8.29661 173.407 7.85593C172.682 7.3983 171.859 7.16949 170.937 7.16949C169.571 7.16949 168.418 7.66102 167.48 8.64407C166.541 9.61017 166.072 10.7966 166.072 12.2034C166.072 13.6102 166.541 14.8051 167.48 15.7881C168.418 16.7542 169.571 17.2373 170.937 17.2373C171.859 17.2373 172.682 17.0169 173.407 16.5763C174.131 16.1186 174.699 15.5085 175.111 14.7458L176.469 15.5593C175.959 16.5763 175.21 17.3814 174.222 17.9746C173.234 18.5678 172.139 18.8644 170.937 18.8644Z"></path>
    <path d="M184.588 5.54237C186.086 5.54237 187.264 6.01695 188.12 6.9661C188.992 7.8983 189.429 9.16102 189.429 10.7542V18.5593H187.799V10.7542C187.799 9.61864 187.502 8.73729 186.91 8.11017C186.333 7.48305 185.51 7.16949 184.44 7.16949C183.255 7.16949 182.291 7.55932 181.551 8.33898C180.81 9.1017 180.439 10.2881 180.439 11.8983V18.5593H178.809V0.762711H180.439V7.83051C181.361 6.30508 182.744 5.54237 184.588 5.54237Z"></path>
</svg>